<?xml version="1.0" encoding="UTF-8"?>
<svg id="Layer_1" data-name="Layer 1" xmlns="http://www.w3.org/2000/svg" version="1.1" viewBox="0 0 64 64">
  <defs>
    <style>
      .cls-1 {
        fill: #28194f;
      }

      .cls-1, .cls-2, .cls-3, .cls-4, .cls-5, .cls-6, .cls-7 {
        stroke-width: 0px;
      }

      .cls-2 {
        fill: #bdd6f2;
      }

      .cls-3 {
        fill: #7077b1;
      }

      .cls-4 {
        fill: #de9762;
      }

      .cls-5 {
        fill: #fefefe;
      }

      .cls-6 {
        fill: #1daaf5;
      }

      .cls-7 {
        fill: #444590;
      }
    </style>
  </defs>
  <path class="cls-1" d="M7.4,54.03c-.02,1.89.15,3.77.14,5.66.01.57.09,1.14.03,1.69-.1.92.17,1.66.89,2.24.53.32,1.12.35,1.72.35,2.83,0,5.65-.01,8.48,0,.59,0,1.12-.15,1.66-.34.84-.62,1.14-1.44,1.05-2.47-.06-.59,0-1.2.01-1.8-.02-.35-.08-.71.04-1.06.07-.05.13-.13.2-.13,3,0,6-.08,9,.06.19,0,.39,0,.58,0,.49-.1.99-.1,1.48,0,.48,0,.96,0,1.43,0,.1,0,.2,0,.29,0,1.51,0,3.01,0,4.52,0,.05-.05.09-.05.14,0,.53,0,1.06,0,1.6,0,.55-.1,1.11-.1,1.66,0,.25-.02.5-.07.73.06l.05-.03-.03.04c.02.13.04.26.06.39.01.74.09,1.49.02,2.22-.1,1.12.22,2.02,1.11,2.71.41.09.78.39,1.24.3,1.45-.19,2.91-.06,4.36-.07,1.57-.02,3.14.03,4.72.05.38-.1.77-.2,1.15-.3.41-.44.81-.89.83-1.54-.08-.19-.11-.39-.01-.59.03-.59.05-1.18.08-1.78l-.05-.06c-.13-1.98-.16-3.96.01-5.93-.14-1.27-.14-2.59.01-3.86-.04-.12-.04-.28-.03-.48.05-.71.04-1.43.02-2.15-.03-1.39-.99-2.38-2.38-2.41-1.32-.03-2.64-.03-3.95,0-.57.01-.82-.12-.8-.75.05-2.15.06-4.3.04-6.45,0-.54.18-.69.69-.66.77.04,1.55,0,2.32,0,.11-.11.22-.11.33,0,.97-.02,1.94.14,2.91.01.64-.64.93-1.41.86-2.31-.05-.09-.09-.18-.14-.27-.04-.03-.05-.06-.03-.11-.05-.08-.1-.16-.15-.24h0c-.05-.06-.09-.12-.14-.18l-.02-.02c-.24-.14-.47-.29-.71-.43-.23-.02-.45-.03-.68-.05-.23,0-.46,0-.68,0-1.49.04-2.99.14-4.48-.06-.15-.03-.1-.1-.03-.17,0-.83-.01-1.65-.02-2.48-.46-1.32-1.39-1.8-2.78-1.77-3.15.06-6.3.01-9.45,0-1.91,0-3.27-1.41-3.24-3.33.01-1,.05-2.01.02-3.01-.02-.64.12-.82.75-.52,1.09.51,2.2.95,3.37,1.26.92.25,1.85.34,2.8.29,1.99-.1,3.31-1.44,3.46-3.45.12-1.68-.33-3.23-.96-4.75-.39-.92-.79-1.85-1.39-2.66-.45-.62-.54-1.15,0-1.75.27-.29.48-.63.72-.95.39-1.25,1.12-2.38,1.43-3.67.29-1.18.45-2.36.15-3.56-.54-2.14-2.01-2.89-4.05-2.76-2.38.16-4.6.98-6.69,2.06-1.01.53-1.88.48-2.85.02-1.58-.74-3.2-1.4-4.9-1.83-1.06-.27-2.12-.44-3.22-.2-1.75.38-2.79,1.53-2.93,3.33-.15,1.83.32,3.52,1.09,5.15.27.57.54,1.13.82,1.7.04.03.05.07.04.11.05.08.11.15.16.23h0c.26.43.89.72.54,1.4-.06.11-.12.22-.18.33-.15.45-.37.86-.69,1.22h.01c-.05.26-.15.5-.36.68h0c-.44,1.29-1.09,2.51-1.28,3.9-.27,1.85-.05,3.54,1.42,4.87h0c.06.06.13.11.19.16h-.01c.15-.01.28.02.36.16,0,0,0-.01,0-.01,2.5.88,4.72-.21,6.98-.98.4-.14.79-.31,1.36-.54,0,1.39.07,2.65-.02,3.89-.13,1.91-1.57,3.2-3.47,3.2-3.15,0-6.31,0-9.46,0-1.94,0-2.71.78-2.7,2.69q0,1.76-1.72,1.77c-1,0-2.01.02-3.01.01-.95,0-1.87.04-2.31,1.08-.44,1.03,0,1.82.75,2.52,1.86,0,3.73,0,5.59-.03.56-.01.74.13.73.71-.03,2.15-.02,4.3.01,6.45,0,.54-.15.69-.68.67-1.29-.03-2.58-.02-3.87,0-1.6.02-2.5.93-2.5,2.52,0,.72-.04,1.44.01,2.15,0,.03,0,.06,0,.09l-.2,4.49ZM41.92,18.81c.32,1.61-.4,2.44-2.04,2.25-1.78-.21-3.42-.88-5.13-1.74,1.89-1.39,3.52-2.94,4.87-4.77.27-.36.42-.25.61.07.76,1.32,1.4,2.68,1.7,4.19ZM40.46,2.52c1.17-.03,1.54.36,1.55,1.53.02,1.82-.72,3.39-1.6,4.92-.18.32-.35.43-.61.06-1.32-1.83-2.97-3.33-4.92-4.75,1.88-.9,3.61-1.72,5.59-1.76ZM22.25,4.17c-.08-1.17.46-1.7,1.63-1.66,2.03.08,3.81.91,5.71,1.82-2.07,1.23-3.72,2.71-4.97,4.61-.33.49-.51.4-.77-.02-.91-1.46-1.48-3.04-1.6-4.75ZM24.16,21.07c-1.32.11-1.91-.41-1.82-1.73.13-1.87.92-3.51,1.95-5.22,1.52,2.05,3.31,3.7,5.32,5.22-1.79.87-3.53,1.57-5.45,1.73ZM26.04,12.28c-.17-.24-.3-.44-.08-.76,1.6-2.35,3.55-4.34,6.01-5.8.1-.06.2-.11.31-.18.11.07.23.15.35.22,2.22,1.43,4.09,3.21,5.53,5.45.26.4.29.68.02,1.07-1.53,2.15-3.39,3.95-5.58,5.41-.32.21-.55.17-.84-.02-2.23-1.46-4.15-3.24-5.72-5.4ZM10.5,54.27c-.08-.61.18-.8.78-.77,1.06.04,2.12.01,3.18.01h0c1.09,0,2.18.02,3.27-.02.57-.02.74.19.73.74-.04,1.77.15,1.48-1.43,1.49-1.89.02-3.78-.03-5.67.02-.7.02-.94-.22-.85-.88.03-.2.03-.4,0-.6ZM18.45,59.84c-.02.56.14,1.16-.81,1.09-1.05-.07-2.11-.02-3.17-.02h0c-1.11,0-2.23-.03-3.34,0-.77.03-.62-.49-.61-.92.01-.44-.22-1.04.62-1,2.17.11,4.33-.12,6.5-.16.84-.02.84.41.82,1ZM17.3,50.24c-.94,0-1.89,0-2.83,0-1.03,0-2.06-.03-3.09.01-.64.03-.93-.12-.89-.84.07-1.66-.15-1.39,1.43-1.41,1.89-.02,3.78.03,5.66-.02.68-.02.89.22.94.85.1,1.2-.05,1.41-1.22,1.41ZM44.36,45.07c-.89.5-1.25,1.27-1.26,2.27-.01,1.83-.04,3.66-.06,5.48q.1,2.25-2.08,2.26c-6.16,0-12.32,0-18.47,0-1.12,0-1.12,0-1.12-1.09,0-.4.02-.8.03-1.2-.01-1.74-.02-3.49-.03-5.23-.02-1.78-.98-2.74-2.76-2.75-1.2,0-1.21,0-1.2-1.24,0-3.23.01-6.46.02-9.69q-.13-2.11,1.91-2.11c8.77,0,17.54,0,26.3.01.28,0,.57.04.85.06.26.12.13.32.1.5,0,.17,0,.35.01.52.01,3.8.02,7.6.05,11.4,0,.5-.21.57-.62.55-.57-.03-1.15-.03-1.67.26ZM47.5,48c1.78,0,3.56.04,5.33-.02.98-.03.86.56.87,1.17.01.61.05,1.16-.86,1.1-1-.06-2.01-.01-3.01-.01h0c-1.09,0-2.18-.02-3.27,0-.44,0-.59-.15-.61-.6-.09-1.65-.1-1.64,1.54-1.64ZM45.96,54.83c.06-1.54-.13-1.31,1.34-1.33.86-.01,1.72,0,2.58,0,1.06,0,2.12.02,3.18,0,.48-.01.7.15.65.64,0,.06,0,.11,0,.17q.02,1.42-1.37,1.43c-1.81,0-3.61-.02-5.42.01-.69.01-.99-.17-.96-.92ZM52.94,60.92c-2.06-.03-4.12-.03-6.18,0-.57,0-.82-.12-.8-.76.05-1.56-.1-1.3,1.34-1.32.86-.01,1.72,0,2.58,0h0c1.03,0,2.06.02,3.09,0,1.06-.02.65.77.73,1.29.09.59-.14.8-.76.79Z"/>
  <path class="cls-2" d="M21.39,52.79c-.01-1.74-.02-3.49-.03-5.23-.02-1.78-.98-2.74-2.76-2.75-1.2,0-1.21,0-1.2-1.24,0-3.23.01-6.46.02-9.69.83,0,1.66,0,2.49,0,1.04,0,1.23.17,1.25,1.25.02.89,0,1.78,0,2.66,0,2.56,1.93,4.51,4.48,4.52,4.27.01,8.54.01,12.81,0,2.09,0,4.25-1.81,4.54-3.87.12-.82.03-1.66.04-2.49.03-2.39-.36-2.08,2.1-2.06.82,0,1.46,0,1.45-1.04.01,3.8.02,7.6.05,11.4,0,.5-.21.57-.62.55-.57-.03-1.15-.03-1.67.26-.89.5-1.25,1.27-1.26,2.27-.01,1.83-.04,3.66-.06,5.48-7.22-.01-14.43-.02-21.65-.03ZM37.91,51.65c1.92,0,3.37-1.46,3.36-3.36,0-1.81-1.47-3.24-3.31-3.23-1.83,0-3.35,1.52-3.34,3.33.01,1.82,1.47,3.26,3.28,3.26ZM26.41,45.07c-1.8-.01-3.26,1.49-3.29,3.37-.03,1.69,1.51,3.25,3.22,3.26,1.8.01,3.39-1.52,3.4-3.28,0-1.8-1.52-3.34-3.33-3.35Z"/>
  <path class="cls-5" d="M46.6,32.86c0,1.04-.64,1.05-1.45,1.04-2.46-.02-2.07-.34-2.1,2.06-.01.83.07,1.67-.04,2.49-.29,2.05-2.45,3.86-4.54,3.87-4.27.01-8.54.01-12.81,0-2.55,0-4.47-1.96-4.48-4.52,0-.89.02-1.78,0-2.66-.03-1.08-.21-1.25-1.25-1.25-.83,0-1.66,0-2.49,0q-.13-2.11,1.91-2.11c8.77,0,17.54,0,26.3.01.28,0,.57.04.85.06,0,.17-.05.36.1.5,0,.17,0,.35.01.52ZM36.71,39.61c1.46.01,2.6-1.08,2.62-2.49.01-1.44-1.16-2.61-2.62-2.62-1.38,0-2.61,1.2-2.6,2.56.01,1.34,1.23,2.54,2.6,2.56ZM27.44,39.62c1.47,0,2.66-1.15,2.67-2.57.01-1.38-1.24-2.57-2.69-2.56-1.42.02-2.51,1.1-2.5,2.5,0,1.4,1.17,2.62,2.52,2.62Z"/>
  <path class="cls-5" d="M32.28,5.54c.11.07.23.15.35.22,2.22,1.43,4.09,3.21,5.53,5.45.26.4.29.68.02,1.07-1.53,2.15-3.39,3.95-5.58,5.41-.32.21-.55.17-.84-.02-2.23-1.46-4.15-3.24-5.72-5.4-.17-.24-.3-.44-.08-.76,1.6-2.35,3.55-4.34,6.01-5.8.1-.06.2-.11.31-.18ZM32.17,8.74c-1.59-.02-2.82,1.19-2.84,2.79-.02,1.63,1.13,2.86,2.74,2.9,1.62.04,2.91-1.19,2.94-2.81.02-1.66-1.16-2.86-2.83-2.88Z"/>
  <path class="cls-3" d="M21.39,52.79c7.22.01,14.43.02,21.65.03q.1,2.25-2.08,2.26c-6.16,0-12.32,0-18.47,0-1.12,0-1.12,0-1.12-1.09,0-.4.02-.8.03-1.2Z"/>
  <path class="cls-5" d="M29.61,19.35c-1.79.87-3.53,1.57-5.45,1.73-1.32.11-1.91-.41-1.82-1.73.13-1.87.92-3.51,1.95-5.22,1.52,2.05,3.31,3.7,5.32,5.22Z"/>
  <path class="cls-5" d="M34.75,19.32c1.89-1.39,3.52-2.94,4.87-4.77.27-.36.42-.25.61.07.76,1.32,1.4,2.68,1.7,4.19.32,1.61-.4,2.44-2.04,2.25-1.78-.21-3.42-.88-5.13-1.74Z"/>
  <path class="cls-5" d="M29.59,4.34c-2.07,1.23-3.72,2.71-4.97,4.61-.33.49-.51.4-.77-.02-.91-1.46-1.48-3.04-1.6-4.75-.08-1.17.46-1.7,1.63-1.66,2.03.08,3.81.91,5.71,1.82Z"/>
  <path class="cls-5" d="M34.88,4.29c1.88-.9,3.61-1.72,5.59-1.76,1.17-.03,1.54.36,1.55,1.53.02,1.82-.72,3.39-1.6,4.92-.18.32-.35.43-.61.06-1.32-1.83-2.97-3.33-4.92-4.75Z"/>
  <path class="cls-7" d="M14.47,50.24c-1.03,0-2.06-.03-3.09.01-.64.03-.93-.12-.89-.84.07-1.66-.15-1.39,1.43-1.41,1.89-.02,3.78.03,5.66-.02.68-.02.89.22.94.85.1,1.2-.05,1.41-1.22,1.41-.94,0-1.89,0-2.83,0Z"/>
  <path class="cls-7" d="M14.46,53.5c1.09,0,2.18.03,3.27-.01.57-.02.74.19.73.74-.04,1.77.15,1.48-1.43,1.49-1.89.02-3.78-.03-5.67.02-.7.02-.94-.22-.85-.88.03-.2.03-.4,0-.6-.08-.61.18-.8.78-.77,1.06.04,2.12.01,3.18.01h0Z"/>
  <path class="cls-7" d="M49.88,53.51c1.06,0,2.12.02,3.18,0,.48-.01.7.15.65.64,0,.06,0,.11,0,.17q.02,1.42-1.37,1.43c-1.81,0-3.61-.02-5.42.01-.69.01-.99-.17-.96-.92.06-1.54-.13-1.31,1.34-1.33.86-.01,1.72,0,2.58,0Z"/>
  <path class="cls-7" d="M49.84,50.23c-1.09,0-2.18-.01-3.27,0-.44,0-.59-.15-.61-.6-.09-1.65-.1-1.64,1.54-1.64,1.78,0,3.56.04,5.33-.02.98-.03.86.56.87,1.17.01.61.05,1.16-.86,1.1-1-.06-2.01-.01-3.01-.01h0Z"/>
  <path class="cls-7" d="M49.88,58.85c1.03,0,2.06.01,3.09,0,1.06-.02.65.77.73,1.29.09.59-.14.8-.76.79-2.06-.03-4.12-.03-6.18,0-.57,0-.82-.12-.8-.76.05-1.56-.1-1.3,1.34-1.32.86-.01,1.72,0,2.58,0h0Z"/>
  <path class="cls-7" d="M14.46,60.91c-1.11,0-2.23-.03-3.34,0-.77.03-.62-.49-.61-.92.01-.44-.22-1.04.62-1,2.17.11,4.33-.12,6.5-.16.84-.02.84.41.82,1-.02.56.14,1.16-.81,1.09-1.05-.07-2.11-.02-3.17-.02h0Z"/>
  <path class="cls-7" d="M54.58,63.91c-3.03.12-6.05.1-9.08.02,1.45-.19,2.91-.06,4.36-.07,1.57-.02,3.14.03,4.72.05Z"/>
  <path class="cls-2" d="M46.59,32.33c-.16-.14-.11-.32-.1-.5.26.12.13.32.1.5Z"/>
  <path class="cls-6" d="M21.89,23.37c-.16.02-.29,0-.36-.17.15,0,.28.03.36.17Z"/>
  <polygon class="cls-4" points="43.07 58.31 43.05 58.29 43.1 58.27 43.07 58.31"/>
  <path class="cls-6" d="M21.87,10.64c-.05-.08-.11-.15-.16-.23.05.08.11.15.16.23Z"/>
  <path class="cls-1" d="M37.91,51.65c-1.81,0-3.27-1.44-3.28-3.26-.01-1.81,1.5-3.32,3.34-3.33,1.83,0,3.3,1.42,3.31,3.23,0,1.91-1.44,3.36-3.36,3.36Z"/>
  <path class="cls-1" d="M26.41,45.07c1.81.01,3.34,1.56,3.33,3.35,0,1.76-1.6,3.29-3.4,3.28-1.71-.01-3.24-1.57-3.22-3.26.03-1.88,1.49-3.38,3.29-3.37Z"/>
  <path class="cls-1" d="M36.71,39.61c-1.37-.01-2.59-1.21-2.6-2.56-.01-1.35,1.22-2.56,2.6-2.56,1.46,0,2.63,1.18,2.62,2.62-.01,1.42-1.16,2.51-2.62,2.49Z"/>
  <path class="cls-1" d="M27.44,39.62c-1.35,0-2.52-1.22-2.52-2.62,0-1.41,1.08-2.49,2.5-2.5,1.45-.02,2.7,1.17,2.69,2.56-.01,1.42-1.2,2.57-2.67,2.57Z"/>
  <path class="cls-1" d="M32.17,8.74c1.67.02,2.86,1.22,2.83,2.88-.02,1.61-1.32,2.85-2.94,2.81-1.61-.04-2.76-1.26-2.74-2.9.02-1.6,1.25-2.8,2.84-2.79Z"/>
</svg>